<?xml version="1.0" standalone="no"?><!DOCTYPE svg PUBLIC "-//W3C//DTD SVG 1.1//EN" "http://www.w3.org/Graphics/SVG/1.1/DTD/svg11.dtd"><svg t="1741078584737" class="icon" viewBox="0 0 1106 1024" version="1.1" xmlns="http://www.w3.org/2000/svg" p-id="3713" xmlns:xlink="http://www.w3.org/1999/xlink" width="216.015625" height="200"><path d="M1094.792056 419.912875L565.015045 4.527065a23.518654 23.518654 0 0 0-27.824887 0L9.621471 417.483718a23.076989 23.076989 0 0 0-9.385378 15.347854 22.745741 22.745741 0 0 0 4.637481 17.335346 21.31033 21.31033 0 0 0 18.660341 9.385379 17.114514 17.114514 0 0 0 14.022859-4.747898l20.979082-16.452016v522.931206a60.176838 60.176838 0 0 0 60.618503 60.618503h863.786069a62.16433 62.16433 0 0 0 60.618503-62.937244v-520.060384l23.408238 18.329092a33.124865 33.124865 0 0 0 14.02286 4.637481 21.420746 21.420746 0 0 0 18.66034-9.385378 25.064481 25.064481 0 0 0-4.747897-32.572784z m-676.740996 341.186111a256.496873 256.496873 0 0 1 142.326504 44.166487 251.417727 251.417727 0 0 1 62.937244 64.924736l114.501617-258.92603a12.918697 12.918697 0 0 1 18.660341-6.956221 12.808281 12.808281 0 0 1 7.839551 7.618719 12.587449 12.587449 0 0 1-0.883329 11.041621l-124.439077 273.83222a206.478327 206.478327 0 0 1 10.158292 22.083243 14.354108 14.354108 0 0 1 0 14.02286 15.679103 15.679103 0 0 1-11.70412 9.385378h-4.637481a18.549925 18.549925 0 0 1-18.66034-11.704119 207.472072 207.472072 0 0 0-387.340091 0 18.770757 18.770757 0 0 1-18.770757 11.704119h-6.956222a22.083243 22.083243 0 0 1-11.704119-25.616562 248.657322 248.657322 0 0 1 88.332974-112.072461 255.392711 255.392711 0 0 1 140.11818-44.166487z m-81.597585-44.166487a127.86198 127.86198 0 1 1 100.920423 36.989433 132.499461 132.499461 0 0 1-36.21652-2.208324 127.420315 127.420315 0 0 1-64.703903-34.781109z m438.683632-196.651283H602.335726a18.218676 18.218676 0 0 1-13.249946-5.410394 18.660341 18.660341 0 0 1-5.410394-13.249946 18.881173 18.881173 0 0 1 5.410394-13.360363 18.10826 18.10826 0 0 1 13.249946-5.299978h172.801381a18.10826 18.10826 0 0 1 13.249946 5.299978 18.439508 18.439508 0 0 1 5.410394 13.360363 20.206168 20.206168 0 0 1-18.66034 18.66034z m35.00194 42.068579a18.439508 18.439508 0 0 1-5.410394 13.360362 18.10826 18.10826 0 0 1-13.249946 5.299979h-51.453958a18.10826 18.10826 0 0 1-13.249946-5.299979 18.881173 18.881173 0 0 1-5.299978-13.360362 18.660341 18.660341 0 0 1 5.410395-13.249946 18.218676 18.218676 0 0 1 13.139529-5.520811h51.343542a18.439508 18.439508 0 0 1 18.770756 18.770757z m103.570412 149.393142a68.678887 68.678887 0 0 1-70.003881 70.003882h-97.055856a22.083243 22.083243 0 0 1-17.004097-6.404141 22.083243 22.083243 0 0 1-6.404141-16.893681 22.635325 22.635325 0 0 1 6.404141-17.004097 22.083243 22.083243 0 0 1 17.004097-6.293725h97.055856a22.083243 22.083243 0 0 0 16.893681-6.40414 22.083243 22.083243 0 0 0 6.40414-17.004098v-245.124002a22.083243 22.083243 0 0 0-6.40414-17.004098 22.083243 22.083243 0 0 0-16.893681-6.40414H229.680993a22.083243 22.083243 0 0 0-16.893682 6.40414 22.083243 22.083243 0 0 0-6.40414 17.004098v245.013586a22.083243 22.083243 0 0 0 6.40414 17.004098 22.083243 22.083243 0 0 0 16.893682 6.40414h49.0248a22.083243 22.083243 0 0 1 17.004098 6.293725 22.635325 22.635325 0 0 1 6.40414 17.004097 22.083243 22.083243 0 0 1-6.40414 16.893681 22.083243 22.083243 0 0 1-17.004098 6.404141h-49.0248a68.789303 68.789303 0 0 1-70.003882-70.003882V466.618935a68.789303 68.789303 0 0 1 70.003882-69.893466H843.705578a68.678887 68.678887 0 0 1 70.003881 70.003882z" fill="currentColor" p-id="3714"></path></svg>